# xmcd
# Track frame offsets:
# 182
# 14895
# 26637
# 39245
# 48760
# 63957
# 75385
# 87670
# 102947
# 114425
#
# Disc length: 1691 seconds
# Revision: 0
# Processed by: cddbd v1.4PL0 Copyright (c) Steve Scherf et al.
# Submitted via: VisiTrax 2.9.5.181 - For more info visit www.synapsa.com
#
DISCID=7506990a
DTITLE=Cristy Lane - Bransounds Presents The Ultimate Cristy Lane (Vol.5)
DYEAR=1993
DGENRE=
TTITLE0=One Day At A Time
TTITLE1=Penny Arcade
TTITLE2=Slippin' Up, Slippin' Around
TTITLE3=I'm Gonna Love You Anyway
TTITLE4=Love To Love You
TTITLE5=Let Me Down Easy
TTITLE6=I Just Can't Stay Married To You
TTITLE7=Simple Little Words
TTITLE8=Come To My Love
TTITLE9=Sweet Sexy Eyes
EXTD=Brandsounds S21-17621 Vol.5
EXTT0=
EXTT1=
EXTT2=
EXTT3=
EXTT4=
EXTT5=
EXTT6=
EXTT7=
EXTT8=
EXTT9=
PLAYORDER=
